<?xml version="1.0" encoding="UTF-8"?>
<svg xmlns="http://www.w3.org/2000/svg" xmlns:xlink="http://www.w3.org/1999/xlink" width="60pt" height="60pt" viewBox="0 0 60 60" version="1.2">
<defs>
<clipPath id="clip1">
  <path d="M 52 0 L 58.539062 0 L 58.539062 26 L 52 26 Z M 52 0 "/>
</clipPath>
<clipPath id="clip2">
  <path d="M 1.011719 0 L 41 0 L 41 19 L 1.011719 19 Z M 1.011719 0 "/>
</clipPath>
</defs>
<g id="surface1">
<path style=" stroke:none;fill-rule:nonzero;fill:rgb(35.289001%,58.039856%,83.529663%);fill-opacity:1;" d="M 45.175781 41.898438 C 44.890625 41.898438 44.660156 41.664062 44.660156 41.378906 L 44.660156 36.207031 C 44.660156 35.636719 44.199219 35.171875 43.636719 35.171875 C 43.070312 35.171875 42.609375 35.636719 42.609375 36.207031 C 42.609375 37.347656 41.6875 38.277344 40.554688 38.277344 C 39.421875 38.277344 38.503906 37.347656 38.503906 36.207031 L 38.503906 34.136719 C 38.503906 33.566406 38.042969 33.101562 37.476562 33.101562 L 32.34375 33.101562 C 32.058594 33.101562 31.828125 32.871094 31.828125 32.585938 C 31.828125 32.300781 32.058594 32.070312 32.34375 32.070312 L 37.476562 32.070312 C 38.609375 32.070312 39.527344 32.996094 39.527344 34.136719 L 39.527344 36.207031 C 39.527344 36.777344 39.988281 37.242188 40.554688 37.242188 C 41.121094 37.242188 41.582031 36.777344 41.582031 36.207031 C 41.582031 35.066406 42.503906 34.136719 43.636719 34.136719 C 44.765625 34.136719 45.6875 35.066406 45.6875 36.207031 L 45.6875 41.378906 C 45.6875 41.664062 45.457031 41.898438 45.175781 41.898438 "/>
<path style=" stroke:none;fill-rule:nonzero;fill:rgb(69.018555%,86.669922%,96.469116%);fill-opacity:1;" d="M 45.6875 49.636719 L 44.660156 49.636719 C 43.242188 49.636719 42.09375 48.480469 42.09375 47.050781 L 42.09375 43.449219 C 42.09375 42.019531 43.242188 40.863281 44.660156 40.863281 L 45.6875 40.863281 C 47.105469 40.863281 48.253906 42.019531 48.253906 43.449219 L 48.253906 47.050781 C 48.253906 48.480469 47.105469 49.636719 45.6875 49.636719 "/>
<path style=" stroke:none;fill-rule:nonzero;fill:rgb(53.329468%,75.289917%,91.758728%);fill-opacity:1;" d="M 49.792969 31.035156 L 7.707031 31.035156 C 7.421875 31.035156 7.191406 30.804688 7.191406 30.515625 L 7.191406 2.585938 C 7.191406 2.300781 7.421875 2.070312 7.707031 2.070312 L 49.792969 2.070312 C 50.078125 2.070312 50.308594 2.300781 50.308594 2.585938 L 50.308594 30.515625 C 50.308594 30.804688 50.078125 31.035156 49.792969 31.035156 "/>
<path style=" stroke:none;fill-rule:nonzero;fill:rgb(69.018555%,86.669922%,96.469116%);fill-opacity:1;" d="M 48.253906 27.929688 L 9.246094 27.929688 L 9.246094 4.136719 L 48.253906 4.136719 L 48.253906 27.929688 "/>
<path style=" stroke:none;fill-rule:nonzero;fill:rgb(97.24884%,75.289917%,6.269836%);fill-opacity:1;" d="M 42.09375 25.863281 L 35.9375 25.863281 L 35.9375 10.34375 L 42.09375 10.34375 L 42.09375 25.863281 "/>
<path style=" stroke:none;fill-rule:nonzero;fill:rgb(97.24884%,75.289917%,6.269836%);fill-opacity:1;" d="M 50.308594 25.863281 L 44.148438 25.863281 L 44.148438 6.207031 L 50.308594 6.207031 L 50.308594 25.863281 "/>
<g clip-path="url(#clip1)" clip-rule="nonzero">
<path style=" stroke:none;fill-rule:nonzero;fill:rgb(97.24884%,75.289917%,6.269836%);fill-opacity:1;" d="M 58.519531 25.863281 L 52.359375 25.863281 L 52.359375 0 L 58.519531 0 L 58.519531 25.863281 "/>
</g>
<g clip-path="url(#clip2)" clip-rule="nonzero">
<path style=" stroke:none;fill-rule:nonzero;fill:rgb(93.728638%,17.649841%,28.62854%);fill-opacity:1;" d="M 40.042969 0 L 34.910156 0 L 36.617188 1.722656 L 28.75 9.308594 L 11.296875 9.308594 L 1.03125 18.621094 L 4.113281 18.621094 L 12.324219 11.378906 L 29.777344 11.378906 L 38.230469 3.347656 L 40.042969 5.171875 L 40.042969 0 "/>
</g>
<path style=" stroke:none;fill-rule:nonzero;fill:rgb(97.24884%,75.289917%,6.269836%);fill-opacity:1;" d="M 33.882812 25.863281 L 27.722656 25.863281 L 27.722656 14.484375 L 33.882812 14.484375 L 33.882812 25.863281 "/>
<path style=" stroke:none;fill-rule:nonzero;fill:rgb(97.24884%,75.289917%,6.269836%);fill-opacity:1;" d="M 25.671875 25.863281 L 19.511719 25.863281 L 19.511719 18.621094 L 25.671875 18.621094 L 25.671875 25.863281 "/>
<path style=" stroke:none;fill-rule:nonzero;fill:rgb(35.289001%,58.039856%,83.529663%);fill-opacity:1;" d="M 32.855469 36.207031 L 32.855469 31.035156 L 24.644531 31.035156 L 24.644531 36.207031 L 22.589844 37.242188 L 22.589844 38.277344 L 34.910156 38.277344 L 34.910156 37.242188 L 32.855469 36.207031 "/>
<path style=" stroke:none;fill-rule:nonzero;fill:rgb(42.349243%,33.329773%,69.018555%);fill-opacity:1;" d="M 24.324219 35.171875 L 11.296875 35.171875 C 6.195312 35.171875 2.058594 39.339844 2.058594 44.484375 L 2.058594 55.863281 C 2.058594 58.148438 3.898438 60 6.164062 60 L 27.722656 60 L 27.722656 38.597656 C 27.722656 36.707031 26.203125 35.171875 24.324219 35.171875 "/>
<path style=" stroke:none;fill-rule:nonzero;fill:rgb(42.349243%,33.329773%,69.018555%);fill-opacity:1;" d="M 24.644531 35.171875 L 26.28125 35.171875 C 29.34375 35.171875 31.828125 37.675781 31.828125 40.765625 L 31.828125 44.484375 L 24.644531 44.484375 L 24.644531 35.171875 "/>
<path style=" stroke:none;fill-rule:nonzero;fill:rgb(35.289001%,58.039856%,83.529663%);fill-opacity:1;" d="M 45.175781 42.929688 C 44.890625 42.929688 44.660156 42.699219 44.660156 42.414062 L 44.660156 41.378906 C 44.660156 41.09375 44.890625 40.863281 45.175781 40.863281 C 45.457031 40.863281 45.6875 41.09375 45.6875 41.378906 L 45.6875 42.414062 C 45.6875 42.699219 45.457031 42.929688 45.175781 42.929688 "/>
<path style=" stroke:none;fill-rule:nonzero;fill:rgb(96.078491%,49.01886%,76.078796%);fill-opacity:1;" d="M 6.164062 60 C 3.898438 60 2.058594 58.148438 2.058594 55.863281 L 2.058594 44.484375 L 6.164062 44.484375 L 6.164062 60 "/>
<path style=" stroke:none;fill-rule:nonzero;fill:rgb(96.078491%,49.01886%,76.078796%);fill-opacity:1;" d="M 21.949219 29.636719 L 20.890625 23.898438 L 20.859375 22.757812 L 14.378906 22.757812 L 14.378906 35.171875 L 20.042969 35.171875 L 20.042969 32.507812 C 21.292969 32.246094 22.203125 31.007812 21.949219 29.636719 "/>
<path style=" stroke:none;fill-rule:nonzero;fill:rgb(15.289307%,24.708557%,52.549744%);fill-opacity:1;" d="M 14.378906 32.070312 L 18.484375 31.035156 L 17.457031 25.863281 L 18.933594 25.117188 C 20.488281 24.335938 21.328125 22.601562 20.988281 20.886719 C 20.753906 19.710938 20.539062 18.621094 20.539062 18.621094 C 20.539062 18.621094 18.386719 18.835938 16.054688 19.074219 C 12.773438 19.402344 10.273438 22.1875 10.273438 25.511719 C 10.273438 26.410156 10.574219 27.277344 11.128906 27.976562 L 14.378906 32.070312 "/>
<path style=" stroke:none;fill-rule:nonzero;fill:rgb(96.078491%,49.01886%,76.078796%);fill-opacity:1;" d="M 19.511719 28.449219 C 19.511719 29.304688 18.820312 30 17.972656 30 C 17.121094 30 16.429688 29.304688 16.429688 28.449219 C 16.429688 27.589844 17.121094 26.898438 17.972656 26.898438 C 18.820312 26.898438 19.511719 27.589844 19.511719 28.449219 "/>
<path style=" stroke:none;fill-rule:nonzero;fill:rgb(96.078491%,49.01886%,76.078796%);fill-opacity:1;" d="M 31.828125 53.792969 L 31.828125 44.484375 L 24.644531 44.484375 L 24.644531 53.550781 C 24.644531 57.113281 27.507812 60 31.042969 60 C 32.230469 60 33.390625 59.667969 34.398438 59.042969 L 44.980469 52.480469 C 45.738281 52.011719 46.203125 51.175781 46.203125 50.277344 L 46.203125 45.515625 C 46.203125 45.09375 45.945312 44.714844 45.554688 44.554688 L 42.476562 43.316406 C 41.800781 43.042969 41.070312 43.542969 41.070312 44.277344 L 41.070312 48.621094 L 31.828125 53.792969 "/>
</g>
</svg>
