<svg xmlns="http://www.w3.org/2000/svg" viewBox="-13.170000000000002 87.41 601.3399999999999 425.68999999999994"> <svg xmlns="http://www.w3.org/2000/svg" xmlns:xlink="http://www.w3.org/1999/xlink" version="1.1" id="Livello_1" x="172" y="157" viewBox="284.29998779296875 1260.5999755859375 292.9000244140625 272.5" xml:space="preserve" height="213" width="230" preserveAspectRatio="xMinYMin" enable-background="new 0 0 2000 2000" style="overflow: visible;"><path class="st0" d="M404,1260.6c-66.1,0-119.7,53.6-119.7,119.7v12.4c0,1.4,1.9,1.7,2.4,0.4c5.7-15.3,22.6-52.3,68.9-56.6   c0,0,0.1,0,0.1,0c1.8-0.3,3.7-0.6,5.5-0.8c0.3,0,0.7-0.1,1-0.1c4.4-0.5,8.8-0.7,13.3-0.7h201.3v0h0.4v-74.3H404z" style="fill: #0086FF;"></path><path class="st0" d="M362.6,1359.8c-0.3,0-0.7,0.1-1,0.1c-1.8,0.2-3.7,0.5-5.5,0.8c0,0-0.1,0-0.1,0c-34.6,6.2-62.1,33-69.4,67.2   c-1.3,5.9-1.9,12-1.9,18.2c0,42.6,30.8,78.1,71.3,85.4c0,0,0.1,0,0.1,0c1.8,0.3,3.7,0.6,5.5,0.8c0.3,0,0.7,0.1,1,0.1   c4.4,0.5,8.8,0.7,13.3,0.7h201.3v-74.3H375.9c-0.8,0-1.6,0-2.4-0.1c-15.8,0-19.8-25.4,0-25.4c0.8-0.1,1.6-0.1,2.4-0.1h201.3v-74.3   H375.9C371.4,1359.1,367,1359.3,362.6,1359.8z" style="fill: #0086FF;"></path></svg> <svg y="399" viewBox="4.28000020980835 21.760000228881836 461.3399963378906 43.900001525878906" x="56" height="43" width="461" style="overflow: visible;"><g fill="#000" style=""><path d="M29.39 28.83L12.96 28.83L12.96 39.68L27.53 39.68L27.53 46.56L12.96 46.56L12.96 58.03L29.39 58.03L29.39 65.10L4.28 65.10L4.28 21.76L29.39 21.76L29.39 28.83ZM35.03 47.93Q35.03 42.59 37.20 38.59Q39.37 34.60 43.21 32.39Q47.06 30.19 52.02 30.19L52.02 30.19Q58.40 30.19 62.59 33.39Q66.77 36.58 68.20 42.35L68.20 42.35L58.84 42.35Q58.09 40.11 56.33 38.84Q54.56 37.57 51.96 37.57L51.96 37.57Q48.24 37.57 46.07 40.27Q43.90 42.97 43.90 47.93L43.90 47.93Q43.90 52.82 46.07 55.52Q48.24 58.22 51.96 58.22L51.96 58.22Q57.23 58.22 58.84 53.51L58.84 53.51L68.20 53.51Q66.77 59.09 62.56 62.37Q58.34 65.66 52.02 65.66L52.02 65.66Q47.06 65.66 43.21 63.46Q39.37 61.26 37.20 57.26Q35.03 53.26 35.03 47.93L35.03 47.93ZM89.84 65.66Q84.88 65.66 80.91 63.46Q76.94 61.26 74.68 57.23Q72.42 53.20 72.42 47.93L72.42 47.93Q72.42 42.66 74.74 38.63Q77.07 34.60 81.10 32.39Q85.13 30.19 90.09 30.19L90.09 30.19Q95.05 30.19 99.08 32.39Q103.11 34.60 105.43 38.63Q107.76 42.66 107.76 47.93L107.76 47.93Q107.76 53.20 105.37 57.23Q102.98 61.26 98.92 63.46Q94.86 65.66 89.84 65.66L89.84 65.66ZM89.84 58.09Q92.19 58.09 94.27 56.95Q96.35 55.80 97.59 53.51Q98.83 51.21 98.83 47.93L98.83 47.93Q98.83 43.03 96.25 40.39Q93.68 37.76 89.96 37.76L89.96 37.76Q86.24 37.76 83.73 40.39Q81.22 43.03 81.22 47.93L81.22 47.93Q81.22 52.82 83.67 55.46Q86.12 58.09 89.84 58.09L89.84 58.09ZM156.80 30.26Q163.12 30.26 167.00 34.13Q170.87 38.01 170.87 44.95L170.87 44.95L170.87 65.10L162.19 65.10L162.19 46.13Q162.19 42.10 160.15 39.96Q158.10 37.82 154.57 37.82L154.57 37.82Q151.03 37.82 148.95 39.96Q146.88 42.10 146.88 46.13L146.88 46.13L146.88 65.10L138.20 65.10L138.20 46.13Q138.20 42.10 136.15 39.96Q134.11 37.82 130.57 37.82L130.57 37.82Q126.98 37.82 124.90 39.96Q122.82 42.10 122.82 46.13L122.82 46.13L122.82 65.10L114.14 65.10L114.14 30.75L122.82 30.75L122.82 34.91Q124.50 32.74 127.13 31.50Q129.77 30.26 132.93 30.26L132.93 30.26Q136.96 30.26 140.12 31.96Q143.28 33.67 145.02 36.83L145.02 36.83Q146.69 33.85 149.88 32.05Q153.08 30.26 156.80 30.26L156.80 30.26ZM221.77 30.26Q228.10 30.26 231.97 34.13Q235.85 38.01 235.85 44.95L235.85 44.95L235.85 65.10L227.17 65.10L227.17 46.13Q227.17 42.10 225.12 39.96Q223.08 37.82 219.54 37.82L219.54 37.82Q216.01 37.82 213.93 39.96Q211.85 42.10 211.85 46.13L211.85 46.13L211.85 65.10L203.17 65.10L203.17 46.13Q203.17 42.10 201.13 39.96Q199.08 37.82 195.55 37.82L195.55 37.82Q191.95 37.82 189.87 39.96Q187.80 42.10 187.80 46.13L187.80 46.13L187.80 65.10L179.12 65.10L179.12 30.75L187.80 30.75L187.80 34.91Q189.47 32.74 192.11 31.50Q194.74 30.26 197.90 30.26L197.90 30.26Q201.93 30.26 205.10 31.96Q208.26 33.67 209.99 36.83L209.99 36.83Q211.67 33.85 214.86 32.05Q218.05 30.26 221.77 30.26L221.77 30.26ZM276.02 47.18Q276.02 49.04 275.78 50.53L275.78 50.53L250.67 50.53Q250.98 54.25 253.27 56.36Q255.56 58.47 258.91 58.47L258.91 58.47Q263.75 58.47 265.79 54.31L265.79 54.31L275.16 54.31Q273.67 59.27 269.45 62.46Q265.24 65.66 259.10 65.66L259.10 65.66Q254.14 65.66 250.20 63.46Q246.26 61.26 244.06 57.23Q241.86 53.20 241.86 47.93L241.86 47.93Q241.86 42.59 244.03 38.56Q246.20 34.53 250.11 32.36Q254.01 30.19 259.10 30.19L259.10 30.19Q264.00 30.19 267.87 32.30Q271.75 34.41 273.88 38.28Q276.02 42.16 276.02 47.18L276.02 47.18ZM250.73 44.70L267.03 44.70Q266.97 41.35 264.62 39.34Q262.26 37.32 258.85 37.32L258.85 37.32Q255.63 37.32 253.42 39.28Q251.22 41.23 250.73 44.70L250.73 44.70ZM291.03 36.08Q292.70 33.36 295.40 31.81Q298.10 30.26 301.57 30.26L301.57 30.26L301.57 39.37L299.27 39.37Q295.18 39.37 293.11 41.29Q291.03 43.21 291.03 47.99L291.03 47.99L291.03 65.10L282.35 65.10L282.35 30.75L291.03 30.75L291.03 36.08ZM305.16 47.93Q305.16 42.59 307.33 38.59Q309.50 34.60 313.35 32.39Q317.19 30.19 322.15 30.19L322.15 30.19Q328.54 30.19 332.72 33.39Q336.91 36.58 338.33 42.35L338.33 42.35L328.97 42.35Q328.23 40.11 326.46 38.84Q324.69 37.57 322.09 37.57L322.09 37.57Q318.37 37.57 316.20 40.27Q314.03 42.97 314.03 47.93L314.03 47.93Q314.03 52.82 316.20 55.52Q318.37 58.22 322.09 58.22L322.09 58.22Q327.36 58.22 328.97 53.51L328.97 53.51L338.33 53.51Q336.91 59.09 332.69 62.37Q328.48 65.66 322.15 65.66L322.15 65.66Q317.19 65.66 313.35 63.46Q309.50 61.26 307.33 57.26Q305.16 53.26 305.16 47.93L305.16 47.93ZM376.65 47.18Q376.65 49.04 376.40 50.53L376.40 50.53L351.29 50.53Q351.60 54.25 353.90 56.36Q356.19 58.47 359.54 58.47L359.54 58.47Q364.37 58.47 366.42 54.31L366.42 54.31L375.78 54.31Q374.29 59.27 370.08 62.46Q365.86 65.66 359.72 65.66L359.72 65.66Q354.76 65.66 350.83 63.46Q346.89 61.26 344.69 57.23Q342.49 53.20 342.49 47.93L342.49 47.93Q342.49 42.59 344.66 38.56Q346.83 34.53 350.73 32.36Q354.64 30.19 359.72 30.19L359.72 30.19Q364.62 30.19 368.50 32.30Q372.37 34.41 374.51 38.28Q376.65 42.16 376.65 47.18L376.65 47.18ZM351.35 44.70L367.66 44.70Q367.60 41.35 365.24 39.34Q362.89 37.32 359.48 37.32L359.48 37.32Q356.25 37.32 354.05 39.28Q351.85 41.23 351.35 44.70L351.35 44.70ZM412.61 21.82L421.85 21.82L405.98 65.10L395.44 65.10L379.56 21.82L388.86 21.82L400.77 56.23L412.61 21.82ZM456.44 65.10L453.59 56.85L436.36 56.85L433.50 65.10L424.39 65.10L439.95 21.76L450.06 21.76L465.62 65.10L456.44 65.10ZM438.71 49.91L451.24 49.91L444.97 31.81L438.71 49.91Z" transform="translate(0, 0)"></path></g></svg></svg>