<?xml version="1.0" encoding="UTF-8"?>
<svg xmlns="http://www.w3.org/2000/svg" xmlns:xlink="http://www.w3.org/1999/xlink" width="150pt" height="89.999999pt" viewBox="0 0 150 89.999999" version="1.2">
<g id="surface1">
<path style=" stroke:none;fill-rule:nonzero;fill:rgb(0%,52.549744%,100%);fill-opacity:1;" d="M 68.558594 2.773438 C 53.351562 2.773438 41.015625 15.0625 41.015625 30.222656 L 41.015625 33.066406 C 41.015625 33.386719 41.453125 33.453125 41.570312 33.15625 C 42.878906 29.648438 46.769531 21.164062 57.421875 20.175781 C 57.421875 20.175781 57.445312 20.175781 57.445312 20.175781 C 57.859375 20.109375 58.296875 20.039062 58.710938 19.992188 C 58.78125 19.992188 58.871094 19.972656 58.941406 19.972656 C 59.953125 19.855469 60.964844 19.8125 62.003906 19.8125 L 108.414062 19.8125 L 108.414062 2.773438 Z M 68.558594 2.773438 "/>
<path style=" stroke:none;fill-rule:nonzero;fill:rgb(0%,52.549744%,100%);fill-opacity:1;" d="M 59.035156 25.519531 C 58.964844 25.519531 58.871094 25.542969 58.804688 25.542969 C 58.390625 25.589844 57.953125 25.65625 57.539062 25.726562 C 57.539062 25.726562 57.515625 25.726562 57.515625 25.726562 C 49.554688 27.148438 43.226562 33.292969 41.546875 41.136719 C 41.246094 42.488281 41.109375 43.886719 41.109375 45.308594 C 41.109375 55.078125 48.195312 63.21875 57.515625 64.894531 C 57.515625 64.894531 57.539062 64.894531 57.539062 64.894531 C 57.953125 64.960938 58.390625 65.03125 58.804688 65.078125 C 58.871094 65.078125 58.964844 65.101562 59.035156 65.101562 C 60.046875 65.214844 61.058594 65.261719 62.09375 65.261719 L 108.414062 65.261719 L 108.414062 48.222656 L 62.09375 48.222656 C 61.910156 48.222656 61.726562 48.222656 61.542969 48.199219 C 57.90625 48.199219 56.984375 42.375 61.542969 42.375 C 61.726562 42.351562 61.910156 42.351562 62.09375 42.351562 L 108.414062 42.351562 L 108.414062 25.3125 L 62.09375 25.3125 C 61.058594 25.359375 60.046875 25.40625 59.035156 25.519531 Z M 59.035156 25.519531 "/>
<path style=" stroke:none;fill-rule:nonzero;fill:rgb(0%,0%,0%);fill-opacity:1;" d="M 15.449219 75.800781 L 10.714844 75.800781 L 10.714844 78.917969 L 14.914062 78.917969 L 14.914062 80.894531 L 10.714844 80.894531 L 10.714844 84.191406 L 15.449219 84.191406 L 15.449219 86.222656 L 8.210938 86.222656 L 8.210938 73.769531 L 15.449219 73.769531 Z M 17.078125 81.289062 C 17.078125 80.265625 17.285156 79.371094 17.703125 78.605469 C 18.121094 77.839844 18.699219 77.246094 19.4375 76.824219 C 20.175781 76.402344 21.023438 76.191406 21.976562 76.191406 C 23.203125 76.191406 24.21875 76.496094 25.023438 77.109375 C 25.828125 77.722656 26.367188 78.578125 26.640625 79.683594 L 23.941406 79.683594 C 23.796875 79.253906 23.558594 78.917969 23.21875 78.675781 C 22.878906 78.433594 22.457031 78.3125 21.957031 78.3125 C 21.242188 78.3125 20.675781 78.570312 20.261719 79.085938 C 19.84375 79.605469 19.636719 80.339844 19.636719 81.289062 C 19.636719 82.226562 19.84375 82.953125 20.261719 83.46875 C 20.675781 83.988281 21.242188 84.246094 21.957031 84.246094 C 22.972656 84.246094 23.632812 83.792969 23.941406 82.890625 L 26.640625 82.890625 C 26.367188 83.960938 25.824219 84.808594 25.015625 85.4375 C 24.203125 86.066406 23.191406 86.382812 21.976562 86.382812 C 21.023438 86.382812 20.175781 86.171875 19.4375 85.75 C 18.699219 85.328125 18.121094 84.734375 17.703125 83.96875 C 17.285156 83.203125 17.078125 82.308594 17.078125 81.289062 Z M 32.882812 86.382812 C 31.929688 86.382812 31.070312 86.171875 30.304688 85.75 C 29.542969 85.328125 28.945312 84.734375 28.511719 83.960938 C 28.074219 83.1875 27.859375 82.296875 27.859375 81.289062 C 27.859375 80.277344 28.082031 79.386719 28.527344 78.617188 C 28.976562 77.84375 29.585938 77.246094 30.359375 76.824219 C 31.136719 76.402344 32 76.191406 32.953125 76.191406 C 33.90625 76.191406 34.769531 76.402344 35.546875 76.824219 C 36.320312 77.246094 36.929688 77.84375 37.375 78.617188 C 37.824219 79.386719 38.046875 80.277344 38.046875 81.289062 C 38.046875 82.296875 37.820312 83.1875 37.359375 83.960938 C 36.898438 84.734375 36.28125 85.328125 35.5 85.75 C 34.71875 86.171875 33.847656 86.382812 32.882812 86.382812 Z M 32.882812 84.207031 C 33.332031 84.207031 33.757812 84.097656 34.160156 83.878906 C 34.558594 83.660156 34.878906 83.332031 35.117188 82.890625 C 35.355469 82.449219 35.472656 81.917969 35.472656 81.289062 C 35.472656 80.347656 35.226562 79.628906 34.730469 79.121094 C 34.234375 78.617188 33.632812 78.367188 32.917969 78.367188 C 32.199219 78.367188 31.601562 78.617188 31.121094 79.121094 C 30.636719 79.628906 30.394531 80.347656 30.394531 81.289062 C 30.394531 82.226562 30.632812 82.945312 31.101562 83.453125 C 31.574219 83.957031 32.167969 84.207031 32.882812 84.207031 Z M 52.1875 76.210938 C 53.402344 76.210938 54.382812 76.582031 55.128906 77.324219 C 55.875 78.066406 56.246094 79.101562 56.246094 80.433594 L 56.246094 86.222656 L 53.742188 86.222656 L 53.742188 80.769531 C 53.742188 80 53.546875 79.40625 53.15625 78.996094 C 52.761719 78.589844 52.226562 78.382812 51.546875 78.382812 C 50.867188 78.382812 50.324219 78.589844 49.925781 78.996094 C 49.527344 79.40625 49.328125 80 49.328125 80.769531 L 49.328125 86.222656 L 46.824219 86.222656 L 46.824219 80.769531 C 46.824219 80 46.628906 79.40625 46.234375 78.996094 C 45.84375 78.589844 45.304688 78.382812 44.625 78.382812 C 43.9375 78.382812 43.390625 78.589844 42.992188 78.996094 C 42.589844 79.40625 42.390625 80 42.390625 80.769531 L 42.390625 86.222656 L 39.886719 86.222656 L 39.886719 76.351562 L 42.390625 76.351562 L 42.390625 77.546875 C 42.714844 77.132812 43.128906 76.804688 43.632812 76.566406 C 44.140625 76.328125 44.699219 76.210938 45.304688 76.210938 C 46.082031 76.210938 46.773438 76.375 47.378906 76.699219 C 47.988281 77.027344 48.457031 77.492188 48.792969 78.097656 C 49.113281 77.527344 49.582031 77.070312 50.195312 76.726562 C 50.808594 76.382812 51.472656 76.210938 52.1875 76.210938 Z M 70.921875 76.210938 C 72.140625 76.210938 73.121094 76.582031 73.863281 77.324219 C 74.609375 78.066406 74.984375 79.101562 74.984375 80.433594 L 74.984375 86.222656 L 72.480469 86.222656 L 72.480469 80.769531 C 72.480469 80 72.28125 79.40625 71.890625 78.996094 C 71.496094 78.589844 70.960938 78.382812 70.28125 78.382812 C 69.601562 78.382812 69.0625 78.589844 68.664062 78.996094 C 68.261719 79.40625 68.0625 80 68.0625 80.769531 L 68.0625 86.222656 L 65.558594 86.222656 L 65.558594 80.769531 C 65.558594 80 65.363281 79.40625 64.972656 78.996094 C 64.578125 78.589844 64.042969 78.382812 63.363281 78.382812 C 62.671875 78.382812 62.125 78.589844 61.726562 78.996094 C 61.328125 79.40625 61.128906 80 61.128906 80.769531 L 61.128906 86.222656 L 58.625 86.222656 L 58.625 76.351562 L 61.128906 76.351562 L 61.128906 77.546875 C 61.449219 77.132812 61.863281 76.804688 62.371094 76.566406 C 62.875 76.328125 63.433594 76.210938 64.039062 76.210938 C 64.816406 76.210938 65.507812 76.375 66.117188 76.699219 C 66.722656 77.027344 67.195312 77.492188 67.527344 78.097656 C 67.847656 77.527344 68.316406 77.070312 68.929688 76.726562 C 69.542969 76.382812 70.207031 76.210938 70.921875 76.210938 Z M 86.566406 81.074219 C 86.566406 81.429688 86.542969 81.75 86.496094 82.035156 L 79.257812 82.035156 C 79.316406 82.746094 79.566406 83.304688 80.007812 83.710938 C 80.445312 84.113281 80.988281 84.316406 81.632812 84.316406 C 82.5625 84.316406 83.222656 83.917969 83.617188 83.121094 L 86.316406 83.121094 C 86.03125 84.070312 85.484375 84.851562 84.671875 85.464844 C 83.863281 86.078125 82.867188 86.382812 81.6875 86.382812 C 80.734375 86.382812 79.878906 86.171875 79.121094 85.75 C 78.363281 85.328125 77.773438 84.734375 77.351562 83.960938 C 76.925781 83.1875 76.714844 82.296875 76.714844 81.289062 C 76.714844 80.265625 76.925781 79.367188 77.339844 78.597656 C 77.757812 77.824219 78.34375 77.230469 79.09375 76.8125 C 79.84375 76.398438 80.707031 76.191406 81.6875 76.191406 C 82.628906 76.191406 83.472656 76.394531 84.214844 76.796875 C 84.960938 77.199219 85.539062 77.773438 85.949219 78.515625 C 86.359375 79.257812 86.566406 80.109375 86.566406 81.074219 Z M 79.273438 80.359375 L 83.972656 80.359375 C 83.960938 79.71875 83.730469 79.203125 83.277344 78.820312 C 82.824219 78.433594 82.269531 78.238281 81.613281 78.238281 C 80.996094 78.238281 80.472656 78.425781 80.050781 78.800781 C 79.625 79.175781 79.367188 79.695312 79.273438 80.359375 Z M 90.894531 77.882812 C 91.214844 77.363281 91.636719 76.953125 92.152344 76.65625 C 92.671875 76.359375 93.265625 76.210938 93.933594 76.210938 L 93.933594 78.828125 L 93.269531 78.828125 C 92.484375 78.828125 91.890625 79.011719 91.492188 79.378906 C 91.09375 79.746094 90.894531 80.390625 90.894531 81.304688 L 90.894531 86.222656 L 88.390625 86.222656 L 88.390625 76.351562 L 90.894531 76.351562 Z M 94.96875 81.289062 C 94.96875 80.265625 95.175781 79.371094 95.59375 78.605469 C 96.011719 77.839844 96.589844 77.246094 97.328125 76.824219 C 98.066406 76.402344 98.914062 76.191406 99.867188 76.191406 C 101.09375 76.191406 102.113281 76.496094 102.914062 77.109375 C 103.71875 77.722656 104.257812 78.578125 104.53125 79.683594 L 101.832031 79.683594 C 101.691406 79.253906 101.449219 78.917969 101.109375 78.675781 C 100.769531 78.433594 100.351562 78.3125 99.851562 78.3125 C 99.136719 78.3125 98.570312 78.570312 98.152344 79.085938 C 97.734375 79.605469 97.527344 80.339844 97.527344 81.289062 C 97.527344 82.226562 97.734375 82.953125 98.152344 83.46875 C 98.570312 83.988281 99.136719 84.246094 99.851562 84.246094 C 100.863281 84.246094 101.523438 83.792969 101.832031 82.890625 L 104.53125 82.890625 C 104.257812 83.960938 103.71875 84.808594 102.90625 85.4375 C 102.097656 86.066406 101.085938 86.382812 99.867188 86.382812 C 98.914062 86.382812 98.066406 86.171875 97.328125 85.75 C 96.589844 85.328125 96.011719 84.734375 95.59375 83.96875 C 95.175781 83.203125 94.96875 82.308594 94.96875 81.289062 Z M 115.582031 81.074219 C 115.582031 81.429688 115.558594 81.75 115.511719 82.035156 L 108.269531 82.035156 C 108.328125 82.746094 108.578125 83.304688 109.023438 83.710938 C 109.460938 84.113281 110.003906 84.316406 110.648438 84.316406 C 111.578125 84.316406 112.238281 83.917969 112.632812 83.121094 L 115.332031 83.121094 C 115.042969 84.070312 114.496094 84.851562 113.6875 85.464844 C 112.875 86.078125 111.878906 86.382812 110.699219 86.382812 C 109.746094 86.382812 108.890625 86.171875 108.136719 85.75 C 107.378906 85.328125 106.789062 84.734375 106.367188 83.960938 C 105.945312 83.1875 105.730469 82.296875 105.730469 81.289062 C 105.730469 80.265625 105.941406 79.367188 106.359375 78.597656 C 106.773438 77.824219 107.359375 77.230469 108.109375 76.8125 C 108.859375 76.398438 109.722656 76.191406 110.699219 76.191406 C 111.640625 76.191406 112.484375 76.394531 113.230469 76.796875 C 113.976562 77.199219 114.554688 77.773438 114.964844 78.515625 C 115.375 79.257812 115.582031 80.109375 115.582031 81.074219 Z M 108.285156 80.359375 L 112.988281 80.359375 C 112.976562 79.71875 112.746094 79.203125 112.292969 78.820312 C 111.839844 78.433594 111.285156 78.238281 110.632812 78.238281 C 110.011719 78.238281 109.488281 78.425781 109.066406 78.800781 C 108.640625 79.175781 108.382812 79.695312 108.285156 80.359375 Z M 125.949219 73.785156 L 128.617188 73.785156 L 124.039062 86.222656 L 121 86.222656 L 116.421875 73.785156 L 119.101562 73.785156 L 122.535156 83.671875 Z M 138.589844 86.222656 L 137.765625 83.851562 L 132.800781 83.851562 L 131.972656 86.222656 L 129.347656 86.222656 L 133.835938 73.769531 L 136.75 73.769531 L 141.234375 86.222656 Z M 133.476562 81.855469 L 137.089844 81.855469 L 135.28125 76.65625 Z M 133.476562 81.855469 "/>
</g>
</svg>
